<?xml version="1.0" encoding="UTF-8" standalone="no"?>
<svg
   xmlns:dc="http://purl.org/dc/elements/1.1/"
   xmlns:cc="http://creativecommons.org/ns#"
   xmlns:rdf="http://www.w3.org/1999/02/22-rdf-syntax-ns#"
   xmlns:svg="http://www.w3.org/2000/svg"
   xmlns="http://www.w3.org/2000/svg"
   xmlns:xlink="http://www.w3.org/1999/xlink"
   xmlns:sodipodi="http://sodipodi.sourceforge.net/DTD/sodipodi-0.dtd"
   xmlns:inkscape="http://www.inkscape.org/namespaces/inkscape"
   enable-background="new 0 0 48 48"
   height="48px"
   version="1.1"
   viewBox="0 0 48 48"
   width="48px"
   xml:space="preserve"
   id="svg5"
   sodipodi:docname="games_logo.svg"
   inkscape:version="0.92.2 5c3e80d, 2017-08-06"><metadata
     id="metadata11"><rdf:RDF><cc:Work
         rdf:about=""><dc:format>image/svg+xml</dc:format><dc:type
           rdf:resource="http://purl.org/dc/dcmitype/StillImage" /><dc:title></dc:title></cc:Work></rdf:RDF></metadata><defs
     id="defs9"><linearGradient
       inkscape:collect="always"
       id="linearGradient822-7"><stop
         style="stop-color:#1a97f0;stop-opacity:1"
         offset="0"
         id="stop818" /><stop
         style="stop-color:#29befe;stop-opacity:1"
         offset="1"
         id="stop820" /></linearGradient><linearGradient
       inkscape:collect="always"
       xlink:href="#linearGradient822-7"
       id="linearGradient824"
       x1="24.936255"
       y1="39.661518"
       x2="25.707815"
       y2="13.322533"
       gradientUnits="userSpaceOnUse" /><linearGradient
       inkscape:collect="always"
       xlink:href="#linearGradient822-7"
       id="linearGradient831"
       gradientUnits="userSpaceOnUse"
       x1="24.936255"
       y1="39.661518"
       x2="25.707815"
       y2="13.322533" /></defs><sodipodi:namedview
     pagecolor="#ffffff"
     bordercolor="#666666"
     borderopacity="1"
     objecttolerance="10"
     gridtolerance="10"
     guidetolerance="10"
     inkscape:pageopacity="0"
     inkscape:pageshadow="2"
     inkscape:window-width="1357"
     inkscape:window-height="789"
     id="namedview7"
     showgrid="false"
     inkscape:zoom="9.8333333"
     inkscape:cx="12.530156"
     inkscape:cy="21.562015"
     inkscape:window-x="0"
     inkscape:window-y="0"
     inkscape:window-maximized="0"
     inkscape:current-layer="svg5" /><g
     id="Layer_3"
     style="fill:url(#linearGradient824);fill-opacity:1;stroke:#405792;stroke-opacity:0.24761903"
     transform="matrix(0.9752024,0,0,0.96264647,0.69683742,0.33718148)"><path
       d="M 47.641,31.641 47.649,31.639 44.369,17.82 C 44.312,17.513 44.24,17.214 44.156,16.919 l -0.03,-0.122 v 0 c -1.262,-4.25 -5.189,-7.354 -9.849,-7.354 -2.101,0 -4.053,0.633 -5.68,1.714 H 19.4 C 17.774,10.076 15.822,9.443 13.724,9.443 8.604,9.443 4.37,13.193 3.588,18.09 H 3.58 L 0.224,32.064 c -0.042,0.16 -0.086,0.318 -0.114,0.48 l -0.031,0.129 0.016,0.016 c -0.035,0.242 -0.074,0.48 -0.074,0.73 0,2.84 2.3,5.139 5.138,5.139 1.291,0 2.456,-0.49 3.353,-1.279 l 10e-4,0.004 9.047,-7.43 h 12.888 l 8.791,7.164 c 0.254,0.258 0.539,0.49 0.846,0.691 l 0.155,0.125 v -0.031 c 0.762,0.463 1.638,0.756 2.597,0.756 2.84,0 5.142,-2.299 5.142,-5.139 0,-0.628 -0.129,-1.222 -0.338,-1.778 z M 34.77,13.142 c 1.263,0 2.282,1.023 2.282,2.284 0,1.265 -1.02,2.286 -2.282,2.286 -1.266,0 -2.286,-1.021 -2.286,-2.286 -0.001,-1.26 1.02,-2.284 2.286,-2.284 z m -14.605,6.786 c 0,1.263 -1.021,2.286 -2.284,2.286 h -2.287 v 2.284 c 0,1.261 -1.021,2.285 -2.284,2.285 -1.264,0 -2.287,-1.023 -2.287,-2.285 V 22.214 H 8.738 c -1.264,0 -2.286,-1.023 -2.286,-2.286 v 0 c 0,-1.263 1.022,-2.286 2.286,-2.286 h 2.284 v -2.284 c 0,-1.264 1.022,-2.286 2.287,-2.286 1.263,0 2.284,1.022 2.284,2.286 v 2.284 h 2.287 c 1.263,0 2.285,1.024 2.285,2.286 z m 9.935,2.355 c -1.263,0 -2.282,-1.023 -2.282,-2.286 0,-1.263 1.02,-2.286 2.282,-2.286 1.266,0 2.285,1.023 2.285,2.286 0,1.263 -1.02,2.286 -2.285,2.286 z m 4.67,4.571 c -1.266,0 -2.286,-1.023 -2.286,-2.287 0,-1.261 1.021,-2.284 2.286,-2.284 1.263,0 2.282,1.023 2.282,2.284 0,1.263 -1.02,2.287 -2.282,2.287 z m 4.568,-4.571 c -1.263,0 -2.286,-1.023 -2.286,-2.286 0,-1.263 1.023,-2.286 2.286,-2.286 1.267,0 2.286,1.023 2.286,2.286 0,1.263 -1.02,2.286 -2.286,2.286 z"
       id="path2"
       inkscape:connector-curvature="0"
       style="fill:url(#linearGradient831);fill-opacity:1;stroke:#405792;stroke-opacity:0.24761903" /></g></svg>